<svg aria-hidden="true" style="position:absolute;width:0;height:0" xmlns="http://www.w3.org/2000/svg" overflow="hidden"><defs><symbol id="icon-Client4" viewBox="0 0 32 32"><path fill="var(--color1, #2196f3)" d="M10.569 14.325h-.001c-.451 0-.817.325-.817.726v.001c0 .401.366.726.817.726h.001c.451 0 .817-.325.817-.726 0-.401-.366-.727-.817-.727zm6.032-.232c-.001-.557-.251-1.091-.694-1.485s-1.044-.616-1.671-.617c-.627.001-1.228.223-1.672.617s-.693.928-.695 1.486v3.073s4.731-.468 4.732-3.072v-.001zm-8.507 4.081c.001.388.175.759.483 1.033s.726.429 1.163.43c.436-.001.854-.156 1.163-.43s.482-.645.483-1.033v-2.138s-3.292.326-3.292 2.138zm1.646.383a.461.461 0 01-.239-.065.408.408 0 01-.158-.169l-.001-.002a.333.333 0 01-.024-.223v.002c.017-.074.058-.143.118-.196a.455.455 0 01.305-.112.49.49 0 01.168.03l-.003-.001c.079.029.146.078.193.141a.356.356 0 01.041.36.385.385 0 01-.093.124.461.461 0 01-.305.112v-.002zm3.327-.211h-.318v.328h-.165v-.803h.523v.134h-.357v.207h.318v.133zm.795-.055c0 .079-.014.148-.042.208a.318.318 0 01-.292.187h-.006a.319.319 0 01-.298-.183l-.001-.002a.472.472 0 01-.044-.198v-.047c0-.079.014-.149.042-.209s.069-.107.121-.138c.052-.032.112-.049.179-.049a.324.324 0 01.299.187c.029.06.043.129.043.208v.036zm-.168-.036a.34.34 0 00-.045-.192.148.148 0 00-.123-.066H13.513a.148.148 0 00-.122.065v.001a.339.339 0 00-.046.19v.039c0 .082.015.145.045.191s.073.068.13.068h.007c.05 0 .095-.026.121-.065v-.001a.337.337 0 00.045-.191v-.039zm.705.208v-.005a.086.086 0 00-.033-.067.412.412 0 00-.119-.053.92.92 0 01-.141-.057l.005.002c-.091-.049-.137-.116-.137-.199 0-.043.012-.082.036-.116s.06-.061.105-.08a.402.402 0 01.307.002.238.238 0 01.142.217h-.166c0-.037-.011-.065-.035-.085s-.056-.031-.098-.031a.152.152 0 00-.094.026.079.079 0 00-.034.065v.002c0 .026.013.048.039.066s.065.034.116.049c.094.028.163.063.206.105s.065.094.065.157c0 .069-.026.124-.079.164s-.123.059-.212.059a.405.405 0 01-.169-.034.271.271 0 01-.116-.092l-.001-.001a.236.236 0 01-.04-.132v-.005h.166c0 .088.053.133.159.133.039 0 .07-.008.092-.024a.079.079 0 00.033-.064v-.003zm.882-.458h-.246v.669h-.166v-.669h-.242v-.134h.654v.134zm.578.321h-.318v.215h.373v.133h-.538v-.803h.537v.134h-.372v.191h.318v.13zm.45.054h-.132v.294h-.165v-.803h.298c.095 0 .168.021.219.063s.077.102.077.179a.243.243 0 01-.036.137.243.243 0 01-.106.087l-.002.001.174.328v.008h-.177l-.151-.294zm-.132-.134h.134c.041 0 .073-.01.096-.031a.116.116 0 00.034-.082v-.006c0-.038-.011-.068-.032-.089s-.054-.033-.099-.033h-.133v.241zm1.003.145v.283h-.165v-.803h.313c.06 0 .113.011.159.033s.081.053.106.094c.024.04.037.087.037.138 0 .079-.027.141-.081.186s-.128.068-.223.068h-.145zm0-.134h.148c.044 0 .077-.01.1-.031s.035-.05.035-.088v-.006a.131.131 0 00-.035-.09.127.127 0 00-.096-.037h-.152v.252zm1.046.069h-.318v.215h.373v.133h-.538v-.803h.537v.134h-.372v.191h.318v.13zm.768-.321h-.246v.669h-.165v-.669h-.243v-.134h.654v.134zm.578.321h-.318v.215h.373v.133h-.538v-.803h.537v.134h-.372v.191h.318v.13zm.449.054h-.132v.294h-.165v-.803h.298c.095 0 .168.021.219.063s.077.102.077.179a.243.243 0 01-.036.137.243.243 0 01-.106.087l-.002.001.174.328v.008h-.177l-.151-.294zm-.131-.134h.133c.041 0 .074-.01.096-.031s.034-.051.034-.088c0-.038-.011-.068-.033-.089s-.054-.033-.099-.033h-.133v.241zm.972.218v-.005a.084.084 0 00-.033-.067.412.412 0 00-.119-.053.829.829 0 01-.141-.057l.005.002c-.091-.049-.137-.116-.137-.199 0-.043.012-.082.036-.116s.06-.061.105-.08a.402.402 0 01.307.002.238.238 0 01.142.217h-.165c0-.037-.012-.065-.035-.085s-.056-.031-.098-.031a.152.152 0 00-.094.026.081.081 0 00-.034.065v.002c0 .026.013.048.039.066s.065.034.116.049c.094.028.163.063.206.105s.065.094.065.157c0 .069-.026.124-.079.164s-.123.059-.212.059a.405.405 0 01-.169-.034.271.271 0 01-.116-.092l-.001-.001a.236.236 0 01-.04-.132v-.005h.166c0 .088.053.133.159.133.039 0 .07-.008.092-.024a.079.079 0 00.033-.064v-.003z"/></symbol><symbol id="icon-Client6" viewBox="0 0 32 32"><path fill="var(--color2, #afb1b8)" d="M16.08 15.512a.55.55 0 01-.115-.338l.001-.038v.002-.543c0-.166.038-.293.113-.379s.205-.13.389-.129c.173 0 .295.037.368.111a.454.454 0 01.109.325v.128h-.309v-.129a.679.679 0 00-.009-.127.118.118 0 00-.044-.075.175.175 0 00-.099-.03l-.014.001h.001-.013a.189.189 0 00-.105.032h.001a.143.143 0 00-.051.082v.001a.6.6 0 00-.012.124v.011-.001.659a.336.336 0 00.04.185c.016.02.037.035.061.044h.001a.17.17 0 00.061.012l.019-.001h-.001.013c.036 0 .07-.011.097-.031h-.001a.131.131 0 00.046-.079v-.001a.734.734 0 00.01-.132v-.134h.309v.122l.001.032a.495.495 0 01-.109.31l.001-.001c-.071.081-.192.121-.37.121s-.312-.043-.388-.133zm1.286.006c-.078-.085-.117-.208-.117-.371v-.571c0-.161.039-.283.117-.366s.208-.124.391-.124c.182 0 .311.041.389.124s.118.205.118.366v.571c0 .161-.04.285-.119.37s-.208.127-.388.127-.313-.043-.392-.127zm.535-.137a.315.315 0 00.037-.169v-.699l.001-.019a.307.307 0 00-.038-.148l.001.002a.146.146 0 00-.062-.045h-.001a.17.17 0 00-.061-.011l-.022.001h.001l-.021-.001a.18.18 0 00-.062.011h.001a.146.146 0 00-.063.045.304.304 0 00-.037.166v.702a.315.315 0 00.037.169c.018.018.04.032.065.042a.226.226 0 00.16 0l-.001.001a.192.192 0 00.065-.042v-.003zm.735-1.278h.332l.25 1.053.256-1.053h.324l.033 1.52h-.239l-.026-1.057-.247 1.057h-.192l-.256-1.06-.024 1.06h-.242l.03-1.52zm1.567 0h.518c.298 0 .448.144.448.432 0 .276-.157.413-.471.413h-.176v.676h-.32l.002-1.52zm.443.65a.247.247 0 00.176-.048.244.244 0 00.046-.172v-.017a.471.471 0 00-.017-.125l.001.003a.11.11 0 00-.024-.042.131.131 0 00-.04-.03h-.001a.322.322 0 00-.126-.025h-.017.001-.124v.454h.124zm.984-.65h.344l.352 1.52h-.298l-.07-.351h-.306l-.072.351h-.302l.352-1.52zm.294.994l-.12-.638-.12.638h.239zm.686-.994h.224l.428.867v-.867h.265v1.52h-.213l-.431-.905v.905h-.274l.001-1.52zm1.539.941l-.356-.938h.3l.217.603.204-.603h.294l-.352.939v.58h-.307v-.58zm-7.575 1.244v.079h-.261v.618h-.109v-.618h-.262v-.079h.632zm.818.698H17.305a.038.038 0 01-.021-.007.036.036 0 01-.014-.016l-.075-.166h-.362l-.075.166a.039.039 0 01-.012.019.041.041 0 01-.022.007H16.638l.32-.697h.111l.324.695zm-.53-.259h.302l-.128-.284a.625.625 0 01-.023-.062l-.001-.004-.012.037-.012.029-.127.283zm1.081.19a.6.6 0 00.06 0c.017-.002.034-.004.051-.008.016-.003.031-.008.046-.013l.043-.017v-.157h-.128-.001a.023.023 0 01-.016-.006.01.01 0 01-.005-.006.014.014 0 01-.002-.006v-.054h.248v.267a.48.48 0 01-.131.056l-.003.001c-.026.007-.053.011-.08.015a.964.964 0 01-.093.004h-.004a.497.497 0 01-.16-.027l.003.001a.408.408 0 01-.129-.073h.001a.348.348 0 01-.082-.108l-.001-.002a.334.334 0 01-.029-.14v-.005-.004c0-.051.011-.1.03-.144l-.001.002c.018-.041.047-.079.082-.11s.08-.056.128-.072a.522.522 0 01.171-.026.468.468 0 01.229.052c.02.011.038.023.056.036l-.031.043a.028.028 0 01-.01.009.033.033 0 01-.015.004.036.036 0 01-.02-.006l-.033-.018.002.001a.22.22 0 00-.041-.018l-.002-.001a.377.377 0 00-.056-.015h-.002a.463.463 0 00-.077-.006H17.932a.376.376 0 00-.122.02l.003-.001a.26.26 0 00-.094.055.265.265 0 00-.059.085l-.001.002a.326.326 0 00.001.234l-.001-.002a.264.264 0 00.157.143.363.363 0 00.127.014zm1.019-.011h.349v.079h-.456v-.697h.109l-.003.618zm.713.08h-.109v-.697h.109v.697zm.406-.694a.043.043 0 01.017.013l.467.526v-.012-.013.001-.52h.095v.7h-.059c-.007 0-.014-.002-.021-.004-.007-.003-.012-.008-.017-.013l-.467-.525v.542h-.091v-.697h.057l.018.003zm1.385-.004v.077h-.387v.23h.314v.074h-.314v.238h.387v.077h-.5v-.696h.5zm-11.459-4.306l4.856 1.19v4.171l-4.856-1.19v-4.172zm-.312-.355v4.73l5.478 1.343v-4.729l-5.478-1.344z"/><path fill="var(--color2, #afb1b8)" d="M12.631 19.895l-5.478-1.344v-4.729l5.478 1.344v4.73z"/><path fill="var(--color2, #afb1b8)" d="M9.786 11.929l4.792 1.175-2.038 1.76-4.793-1.176 2.039-1.759zm-.091-.302l-2.543 2.195 5.478 1.344 2.542-2.195-5.478-1.344zm3.244 8.002l2.234-1.929-2.234-.548v2.477z"/></symbol><symbol id="icon-Client5" viewBox="0 0 32 32"><path fill="var(--color2, #afb1b8)" d="M11.06 18.774a.27.27 0 01.069.184v.014c0 .041-.009.08-.026.115l.001-.002a.305.305 0 01-.082.105h-.001a.487.487 0 01-.278.086l-.034-.001h.002-.547V18.11h.535l.032-.001a.49.49 0 01.267.079l-.002-.001c.035.027.062.06.08.098s.026.079.024.12a.257.257 0 01-.062.178.301.301 0 01-.163.091.31.31 0 01.184.1zm-.641-.176h.229a.234.234 0 00.146-.039.14.14 0 00.039-.051v-.001a.123.123 0 00.011-.051l-.001-.012v-.01a.132.132 0 00-.011-.053v.001a.143.143 0 00-.038-.052.236.236 0 00-.132-.04l-.019.001h.001-.225v.306zm.397.447a.146.146 0 00.042-.053v-.001a.128.128 0 00.012-.056v-.01-.009a.137.137 0 00-.013-.058v.001a.148.148 0 00-.043-.053.247.247 0 00-.14-.043h-.016.001-.24v.321h.243a.258.258 0 00.154-.04zm1.338.23l-.298-.456h-.112v.456h-.256V18.11h.485l.035-.001c.114 0 .219.038.304.101l-.001-.001a.355.355 0 01.115.235l.001.024c0 .085-.03.163-.081.223v-.001a.4.4 0 01-.229.118h-.002l.317.466h-.279zm-.409-.615h.21c.146 0 .218-.059.218-.176v-.009a.144.144 0 00-.013-.062v.001a.173.173 0 00-.041-.06.24.24 0 00-.145-.048l-.021.001h.001-.212l.002.355zm1.81.38h-.511l-.09.235h-.269l.469-1.152h.29l.467 1.152h-.268l-.088-.235zm-.069-.176l-.187-.492-.187.492h.373zm1.822.411h-.254l-.57-.792v.792h-.254v-1.166h.254l.57.797v-.797h.254v1.166zm1.451-.279a.535.535 0 01-.23.206.79.79 0 01-.337.074h-.022.001-.453v-1.165H16.192a.81.81 0 01.341.074l-.005-.002a.529.529 0 01.23.203.627.627 0 010 .612zm-.291-.028a.401.401 0 00.112-.278.408.408 0 00-.112-.278.468.468 0 00-.289-.1l-.03.001h.001-.177v.754h.177a.466.466 0 00.319-.1l-.001.001zm-2.754-7.341s3.283 1.135 3.213 2.777v2.777s-3.28-1.135-3.212-2.777l-.001-2.777zm6.137 4.903a4.768 4.768 0 012.086-.704v-.87a4.222 4.222 0 00-2.086 1.573z"/><path fill="var(--color2, #afb1b8)" d="M19.479 16.792c.507-.936 1.387-1.657 2.458-2.017V12.27s-4.675 1.616-4.576 3.955v3.954s.208-.072.536-.208c0-.126 0-.254.015-.382.097-1.085.66-2.091 1.567-2.797z"/><path fill="var(--color2, #afb1b8)" d="M19.034 18.261c.024-.274.079-.546.164-.81a3.649 3.649 0 00-.99 2.389c.39-.171.685-.316.974-.471l-.075.037a3.768 3.768 0 01-.073-1.145zm.186.015a3.607 3.607 0 00.062 1.06l-.004-.023c1.277-.7 2.712-1.781 2.657-3.088v-.114a4.37 4.37 0 00-2.43 1.04 3.551 3.551 0 00-.284 1.111l-.001.014z"/></symbol><symbol id="icon-Client3" viewBox="0 0 32 32"><path fill="var(--color2, #afb1b8)" d="M12.876 19.595l.009.002a.018.018 0 01.007.005l.041.039a.341.341 0 01-.116.075.443.443 0 01-.153.027h-.011.001a.444.444 0 01-.154-.025.318.318 0 01-.116-.071.307.307 0 01-.074-.107l-.001-.002a.35.35 0 01-.026-.136v-.004-.007c0-.096.042-.182.108-.241a.367.367 0 01.123-.071.5.5 0 01.159-.025h.01c.049 0 .096.008.14.024l-.003-.001a.404.404 0 01.111.063l-.034.042a.016.016 0 01-.009.007.024.024 0 01-.012.003h-.002a.033.033 0 01-.015-.004l-.018-.011-.026-.014a.318.318 0 00-.079-.025h-.002a.336.336 0 00-.057-.005H12.668a.322.322 0 00-.112.02l.002-.001a.24.24 0 00-.148.137.28.28 0 00-.021.107v.008c0 .039.008.076.022.11l-.001-.002a.246.246 0 00.142.135.306.306 0 00.106.018.444.444 0 00.063-.004.243.243 0 00.136-.058.032.032 0 01.019-.007zm1.186-.197v.004a.33.33 0 01-.029.137l.001-.002a.288.288 0 01-.077.107.374.374 0 01-.119.07l-.002.001a.486.486 0 01-.316-.001l.004.001a.372.372 0 01-.121-.071.315.315 0 01-.077-.107l-.001-.002a.348.348 0 01.001-.28l-.001.002a.322.322 0 01.198-.177.486.486 0 01.315.001l-.003-.001a.334.334 0 01.199.178.357.357 0 01.028.14zm-.108 0v-.006a.3.3 0 00-.02-.108l.001.002a.23.23 0 00-.14-.135h-.002a.371.371 0 00-.229.001l.003-.001a.228.228 0 00-.142.135l-.001.002a.327.327 0 000 .225l-.001-.002a.227.227 0 00.141.135h.002a.367.367 0 00.227 0 .232.232 0 00.142-.135.306.306 0 00.02-.111zm.917.117l.011.025a.592.592 0 01.026-.05l-.001.001.262-.414c.005-.007.01-.012.015-.013l.018-.002h.081v.674h-.092v-.516-.012-.012.001l-.264.42a.043.043 0 01-.015.015.04.04 0 01-.022.006h-.015-.001a.04.04 0 01-.022-.006.036.036 0 01-.015-.015l-.272-.423v.541h-.089v-.672h.081a.1.1 0 01.018.002h-.001a.03.03 0 01.014.013l.268.415a.171.171 0 01.013.023v.001zm.987-.033v.252h-.102v-.673h.229a.462.462 0 01.128.015.257.257 0 01.09.042.172.172 0 01.051.065v.001a.197.197 0 01.017.086v.004a.186.186 0 01-.074.149.257.257 0 01-.091.044.422.422 0 01-.116.016h-.009l-.124-.002zm0-.072h.124a.308.308 0 00.08-.01.167.167 0 00.058-.029.13.13 0 00.047-.1v-.002-.007a.11.11 0 00-.011-.048v.001a.137.137 0 00-.036-.046.217.217 0 00-.122-.037l-.017.001h.001-.124v.277zm1.379.325h-.081-.002a.037.037 0 01-.021-.006.037.037 0 01-.013-.015l-.07-.163h-.351l-.072.163a.039.039 0 01-.035.022h-.082l.308-.674h.107l.312.674zm-.508-.25h.29l-.122-.274a.533.533 0 01-.023-.063l-.012.035-.011.029-.121.274zm.952-.421a.044.044 0 01.015.012l.449.508v-.523h.092v.674h-.051-.001a.065.065 0 01-.02-.004.066.066 0 01-.017-.012l-.448-.507v.024-.001.501h-.092v-.674h.054c.006 0 .013.001.018.003zm1.313.403v.267h-.103v-.267l-.284-.406h.094c.007 0 .014.002.02.006l.014.015.177.262.018.031.013.028.013-.029a.307.307 0 01.017-.031l.175-.264a.058.058 0 01.013-.014.037.037 0 01.02-.007h.095l-.284.408zm-4.174-1.536c.045.005.09.009.136.012.693-.269 1.278-.71 1.684-1.266s.614-1.205.598-1.864l-.763-.663c.155.702.082 1.427-.21 2.095s-.792 1.252-1.445 1.687z"/><path fill="var(--color2, #afb1b8)" d="M14.548 17.9l.021.004c.697-.433 1.229-1.038 1.526-1.737s.346-1.459.141-2.182l-1.087-.944c.44.776.616 1.645.51 2.505s-.491 1.676-1.111 2.354zm3.686-2.309c-.185.724-.633 1.377-1.279 1.862-.176.134-.375.26-.585.368l-.023.011c.526-.134 1.009-.372 1.413-.694s.717-.721.915-1.165l-.441-.383z"/><path fill="var(--color2, #afb1b8)" d="M18.061 15.484l-.628-.545c-.012.622-.216 1.229-.589 1.76s-.904.964-1.536 1.256h.003c.141 0 .281-.008.421-.022.591-.209 1.112-.543 1.519-.97s.685-.935.81-1.479zm-3.423-2.842l-.749-.651c-.669.225-1.245.62-1.652 1.134s-.625 1.122-.627 1.746c.002.689.269 1.358.759 1.9s1.172.927 1.941 1.094c.687-.727 1.089-1.625 1.148-2.564s-.228-1.87-.82-2.658zm5.153 2.742c-.003-.817-.378-1.601-1.043-2.179s-1.567-.904-2.508-.906h-.008c-.452 0-.886.075-1.291.214l.028-.008 4.584 3.983c.149-.325.237-.704.237-1.104z"/></symbol><symbol id="icon-Client2" viewBox="0 0 32 32"><path fill="var(--color2, #afb1b8)" d="M15.457 11.47h-.026a3.418 3.418 0 00-.116-.004h-.089c-.075 0-.151.002-.227.006h-.018a5.293 5.293 0 00-2.011.519l.032-.014-.082.039v4.168l.191-.065c.167-.057.345-.109.53-.157a6.268 6.268 0 011.519-.202h.004v.548a3.29 3.29 0 00-.2.006h-.016a6.12 6.12 0 00-1.215.189l.042-.009c-.53.135-.995.321-1.427.56l.031-.016v-5.345a5.49 5.49 0 011.427-.588l.039-.008a5.487 5.487 0 011.38-.178h.082c.096.002.19.007.278.013.232.016.462.053.688.11v.539a4.057 4.057 0 00-.653-.1l-.014-.001-.014-.001a1.755 1.755 0 00-.135-.008h-.002zm.948.551c.12.009.243.014.369.014a5.915 5.915 0 001.493-.196l-.041.009a5.97 5.97 0 001.427-.56l-.031.016v5.25c-.422.251-.91.455-1.427.587l-.039.008a5.487 5.487 0 01-1.38.178h-.035c-.36 0-.709-.045-1.043-.13l.029.006v-5.284a4.33 4.33 0 00.678.101zm2.672.041l-.191.064a8.43 8.43 0 01-.529.159 6.283 6.283 0 01-1.581.203h-.001c-.124 0-.238-.003-.349-.011l-.152-.01v4.287l.13.011c.121.011.246.016.371.016a5.088 5.088 0 001.281-.169l-.035.008a5.208 5.208 0 001.005-.364l-.031.014.081-.039v-4.169zM12.751 18.863a.28.28 0 00-.202-.086h-.01.001-.004a.3.3 0 00-.12.024l.002-.001a.28.28 0 00-.156.157l-.001.002a.32.32 0 00-.022.118v.714c-.002.05.008.1.028.146a.256.256 0 00.17.147.39.39 0 00.107.015.303.303 0 00.296-.301v-.08h-.187v.068a.168.168 0 01-.011.06v-.001a.113.113 0 01-.027.04.125.125 0 01-.078.027l-.011.001a.093.093 0 01-.076-.039.164.164 0 01-.025-.088v-.674a.235.235 0 01.023-.107.097.097 0 01.092-.043h.004a.1.1 0 01.08.04.152.152 0 01.031.092v.066h.185v-.073-.003a.319.319 0 00-.024-.124l.001.002a.298.298 0 00-.063-.101zm1.109-.007a.32.32 0 00-.323-.059.294.294 0 00-.17.156l-.001.002a.327.327 0 00-.027.138v.685a.336.336 0 00.027.14.282.282 0 00.072.096c.029.026.062.047.099.06s.073.02.111.02a.322.322 0 00.213-.081.277.277 0 00.07-.096.336.336 0 00.027-.14v-.685-.006a.331.331 0 00-.028-.134l.001.002a.31.31 0 00-.07-.1zm-.088.923v.011a.125.125 0 01-.037.089.136.136 0 01-.176 0 .123.123 0 01-.038-.088l.001-.011v-.685-.011a.12.12 0 01.037-.088.136.136 0 01.176 0 .123.123 0 01.038.088l-.001.011v.685zm1.544.306v-1.297h-.179l-.236.686h-.003l-.238-.686h-.178v1.297h.185v-.789h.003l.181.558h.092l.183-.558h.003v.789h.185zm1.053-1.206a.261.261 0 00-.105-.071.398.398 0 00-.127-.02H15.855v1.297h.185v-.507h.095a.344.344 0 00.167-.035.28.28 0 00.101-.098l.001-.001c.021-.034.036-.073.042-.113s.01-.088.01-.136v-.012.001a.718.718 0 00-.018-.185.276.276 0 00-.068-.119zm-.096.395a.16.16 0 01-.018.069v-.001a.102.102 0 01-.047.045h-.001a.179.179 0 01-.078.017h-.094v-.441h.104c.027 0 .053.006.076.017h-.001a.103.103 0 01.043.047v.001a.18.18 0 01.016.072v.086c0 .03.002.061 0 .089h-.002zm.971-.486h-.152l-.286 1.297h.185l.054-.279h.252l.054.279h.185l-.293-1.297zm-.171.841l.091-.47h.003l.09.47h-.185zm1.365-.06h-.003l-.279-.781h-.178v1.297h.185v-.78h.004l.282.78h.174v-1.297h-.185v.781zm1.129-.781l-.149.516h-.004l-.149-.516h-.196l.254.749v.548h.185v-.548l.254-.749h-.196zm-7.332 1.663h.089v.25h.06v-.25h.088V20.4h-.238v.051zm.749-.052l-.117.301h.064l.025-.069h.12l.026.069h.066l-.12-.301h-.064zm-.009.182l.041-.112.041.112h-.082zm.749.009h.07v.039a.11.11 0 01-.072.025h-.004a.076.076 0 01-.06-.029.125.125 0 01-.022-.072v-.007c0-.067.029-.101.087-.101h.007c.03 0 .055.02.062.048l.059-.011c-.013-.059-.055-.088-.128-.088h-.004a.151.151 0 00-.101.039.148.148 0 00-.044.105v.019c0 .04.015.078.039.106a.148.148 0 00.105.044h.015c.047 0 .09-.018.123-.048v-.119h-.13v.051zm.756-.191h-.061v.301h.211v-.051h-.15v-.25zm.638 0h-.061v.301h.061v-.301zm.625.201l-.123-.201h-.059v.301h.056v-.197l.121.197h.061v-.301h-.056v.201zm.565-.032h.15v-.051h-.15v-.066h.161V20.4h-.222v.301h.229v-.051h-.168v-.081zm1.37-.05h-.119v-.119h-.06v.301h.06v-.132h.119v.132h.061v-.301h-.061v.119zm.568.05h.151v-.051h-.151v-.066h.162V20.4h-.222v.301h.228v-.051h-.168v-.081zm.77 0c.053-.008.079-.036.079-.084l.001-.009a.071.071 0 00-.03-.058.174.174 0 00-.076-.018h-.012.001-.128v.301h.061v-.126h.017c.012 0 .023.003.033.007a.056.056 0 01.021.022l.066.096h.072l-.037-.059a.218.218 0 00-.066-.072h-.001zm-.061-.042h-.045v-.075h.048l.013-.001c.017 0 .034.003.05.008h-.001a.04.04 0 01.008.049.047.047 0 01-.011.013.159.159 0 01-.05.008h-.012.001zm.642.042h.15v-.051h-.15v-.066h.162V20.4h-.223v.301h.229v-.051h-.168v-.081z"/></symbol><symbol id="icon-Client1" viewBox="0 0 32 32"><path fill="var(--color2, #afb1b8)" d="M13.176 11.671l1.319 1.249-2.449-.002v6.059h6.4V16.66l1.318 1.247V11.67h-6.588zm5.213 4.843l-3.74-3.541h3.74v3.541zm-1.161 1.576H13.06v-4.075h.295v3.799h3.873v.276zm-3.184 1.694l-.154.317-.154-.317h-.129l.225.423v.246h.117v-.246l.224-.423h-.129zm.194.669l.054-.156h.259l.055.156h.121l-.253-.669h-.104l-.253.669h.121zm.183-.527l.097.277h-.194l.097-.278zm.614.261a.15.15 0 00-.025.084v.001c0 .056.02.102.059.137s.093.053.159.053a.277.277 0 00.171-.054l.038.045h.13l-.098-.116a.332.332 0 00.058-.203h-.097a.265.265 0 01-.028.123l-.129-.152.046-.033a.252.252 0 00.069-.069l.001-.001a.15.15 0 00.021-.076v-.001-.003a.136.136 0 00-.047-.103.167.167 0 00-.113-.043h-.007c-.054 0-.097.015-.129.046s-.048.072-.048.124c0 .021.005.044.015.067s.029.051.055.084a.402.402 0 00-.1.092zm.301.148a.175.175 0 01-.106.038h-.005a.111.111 0 01-.075-.029.099.099 0 01-.03-.072v-.004c0-.036.018-.068.055-.096l.014-.01.146.172zm-.119-.296c-.032-.039-.047-.071-.047-.097 0-.022.007-.041.019-.056a.064.064 0 01.049-.022h.005a.07.07 0 01.048.019.06.06 0 01.02.045v.002a.082.082 0 01-.028.062l-.014.012-.051.035zm1.089.363a.243.243 0 00.079-.167h-.116c-.006.048-.021.082-.044.102s-.057.031-.103.031c-.05 0-.088-.019-.114-.057s-.039-.093-.039-.166v-.059c.001-.072.014-.125.041-.162s.066-.056.117-.056c.043 0 .076.011.099.032s.037.056.042.104h.116c-.008-.073-.034-.13-.079-.17s-.104-.06-.178-.06a.25.25 0 00-.24.148l-.001.002a.393.393 0 00-.034.159V20.154c.001.062.012.116.034.162s.053.082.094.108a.266.266 0 00.141.038c.076 0 .137-.02.183-.06zm.683-.094a.405.405 0 00.034-.173v-.037-.007a.407.407 0 00-.036-.167l.001.003a.253.253 0 00-.097-.112l-.001-.001c-.042-.026-.09-.04-.145-.04a.261.261 0 00-.243.154.4.4 0 00-.035.165v.047c0 .064.012.12.035.169s.056.087.098.114c.043.026.091.04.145.04s.103-.013.145-.04a.259.259 0 00.097-.114zm-.124-.378c.028.04.042.097.042.171v.035c0 .075-.014.133-.042.172s-.067.059-.119.059h-.005a.14.14 0 01-.114-.06.288.288 0 01-.043-.171v-.039a.291.291 0 01.043-.167.137.137 0 01.113-.059h.005c.051 0 .091.02.119.059z"/></symbol><symbol id="icon-envelope" viewBox="0 0 32 32"><path fill="var(--color3, #757575)" d="M29 4H3C1.346 4 0 5.346 0 7v18c0 1.654 1.346 3 3 3h26c1.654 0 3-1.346 3-3V7c0-1.654-1.346-3-3-3zm0 2c.136 0 .266.028.384.078L16 17.678 2.616 6.078A.971.971 0 013 6h26zm0 20H3a1 1 0 01-1-1V8.19l13.344 11.566a.997.997 0 001.313-.001l-.001.001L30 8.19V25a1 1 0 01-1 1z"/></symbol><symbol id="icon-smartphone" viewBox="0 0 32 32"><path fill="var(--color3, #757575)" d="M23 0H9C7.346 0 6 1.346 6 3v26c0 1.654 1.346 3 3 3h14c1.654 0 3-1.346 3-3V3c0-1.654-1.346-3-3-3zM9 2h14a1 1 0 011 1v21H8V3a1 1 0 011-1zm14 28H9a1 1 0 01-1-1v-3h16v3a1 1 0 01-1 1z"/><path fill="var(--color3, #757575)" d="M10.708 27.478a.889.889 0 01.001 1.319l-.001.001a1.048 1.048 0 01-1.417 0l.001.001a.889.889 0 01-.001-1.319l.001-.001a1.048 1.048 0 011.417 0l-.001-.001z"/></symbol><symbol id="icon-attention" viewBox="0 0 30 32"><path fill="var(--color4, #212121)" d="M29.859 22.098l-8.443-8.505.937-4.616c.225.09.485.144.758.146h.033a2.16 2.16 0 10-2.029-1.42l-.005-.015-4.96.606L8.059.161a.53.53 0 00-.376-.16.536.536 0 00-.373.155L5.798 1.66a.535.535 0 000 .754l.814.825c-1.143 2.062-1.816 4.522-1.816 7.139 0 4.106 1.656 7.824 4.336 10.525l-.001-.001a.49.49 0 00.146.097 2.986 2.986 0 00-.052.546v6.188h-6.4a2.669 2.669 0 00-2.667 2.666v1.067c0 .295.239.534.534.534h24.534a.534.534 0 00.533-.534v-1.067a2.67 2.67 0 00-2.666-2.666h-6.4v-2.742a14.784 14.784 0 0010.166-1.502l-.077.039.818.823a.534.534 0 00.376.16.536.536 0 00.373-.155l1.512-1.504a.535.535 0 000-.754zM22.366 6.233a1.067 1.067 0 11.752 1.822h-.004a1.066 1.066 0 01-.747-1.822h-.002zM21.11 9.737l-.598 2.946-1.175-1.183 1.774-1.763zm-.606-.902l-1.92 1.909-1.486-1.493 3.406-.416zM23.09 28.8a1.6 1.6 0 011.6 1.6v.534H1.224V30.4a1.6 1.6 0 011.6-1.6h20.267zm-7.467-2.134v1.067h-5.334v-1.067h5.334zM10.29 25.6v-4.053c0-1.294 1.196-2.346 2.666-2.346s2.667 1.053 2.667 2.346V25.6H10.29zm6.4-1.696v-2.357c0-1.882-1.675-3.413-3.733-3.413h-.058c-1.353 0-2.54.707-3.213 1.771l-.009.016a13.817 13.817 0 01-3.812-9.55c0-2.314.567-4.496 1.569-6.414l-.036.077L26 22.743c-1.823.947-3.979 1.502-6.266 1.502-1.079 0-2.128-.124-3.136-.357l.093.018zm11.289-.684L6.922 2.039l.754-.752 7.935 7.98c.004 0 .006.007.01.01l13.115 13.191-.757.752z"/><path fill="var(--color1, #2196f3)" d="M12.961 20.267h-.007a1.6 1.6 0 00-.003 3.2h.007a1.6 1.6 0 00.002-3.2zm.373 1.978a.534.534 0 11-.378-.912.533.533 0 01.374.911h.005z"/></symbol><symbol id="icon-clock-1" viewBox="0 0 32 32"><path fill="var(--color4, #212121)" d="M31.296 15.301C31.295 6.849 24.441-.002 15.988 0S.685 6.855.687 15.308c.002 6.788 4.422 12.543 10.541 14.545l.108.031a.667.667 0 00.529-.065.636.636 0 00.283-.357l3.865-12.25a1.913 1.913 0 10-.852-3.63l.011-.005-5.106-5.107a.638.638 0 00-.902.902l5.103 5.109a1.847 1.847 0 00-.191.826c0 .602.283 1.137.723 1.48l.004.003-3.682 11.673C3.843 25.782.117 17.709 2.797 10.431S13.551-.573 20.829 2.108c7.278 2.681 11.004 10.754 8.323 18.032-1.345 3.581-4.003 6.406-7.374 7.938l-.088.036-.398-1.874a.639.639 0 00-1.05-.343l.001-.001-3.837 3.426a.637.637 0 00.227 1.083l.005.001 4.899 1.563a.637.637 0 00.818-.744l.001.004-.391-1.839c5.528-2.374 9.329-7.772 9.329-14.057v-.034.002zm-15.304-.637a.638.638 0 010 1.276.638.638 0 010-1.276zm2.1 14.864l2.184-1.948.603 2.84-2.787-.892z"/><path fill="var(--color1, #2196f3)" d="M15.354 3.185V4.46a.638.638 0 001.276 0V3.185a.638.638 0 10-1.276 0zM3.876 14.664a.638.638 0 000 1.276h1.275a.638.638 0 000-1.276H3.876zm24.232 1.275a.638.638 0 000-1.276h-1.275a.638.638 0 000 1.276h1.275z"/></symbol><symbol id="icon-Vector" viewBox="0 0 32 32"><path d="M1.599 28.291h25.586a1.6 1.6 0 001.599-1.599V24.56a1.6 1.6 0 00-1.599-1.599h-.533V9.667l3.028-2.868a1.608 1.608 0 10-.742-.752l-.004-.01-2.281 2.162v-1.23a1.6 1.6 0 00-1.599-1.599H3.731a1.6 1.6 0 00-1.599 1.599v15.992h-.533A1.6 1.6 0 000 24.56v2.132a1.6 1.6 0 001.599 1.599zM30.384 4.837a.533.533 0 010 1.066.533.533 0 010-1.066zM3.198 6.969c0-.294.239-.533.533-.533h21.323c.294 0 .533.239.533.533v2.239l-1.066 1.013V8.036a.534.534 0 00-.534-.534H4.798a.534.534 0 00-.534.533v13.327c0 .294.239.533.534.533h19.189a.534.534 0 00.534-.533v-9.675l1.066-1.01V22.96H3.198V6.97zm4.798 6.93h-.005a1.6 1.6 0 101.112 2.748l1.853.93a.533.533 0 00.636-.123l3.939-4.431 3.872 2.902a.534.534 0 00.686-.039l3.365-3.188v8.131H5.331V8.568h18.123v2.661l-3.771 3.572-3.904-2.927a.534.534 0 00-.718.071v.001l-3.993 4.493-1.493-.746c.011-.064.017-.128.02-.193a1.6 1.6 0 00-1.599-1.599zm.533 1.599a.533.533 0 01-1.066 0 .533.533 0 011.066 0zm3.198 8.528h5.33v.533a.533.533 0 01-.533.533h-4.265a.533.533 0 01-.533-.533v-.533zm-10.66.534c0-.294.238-.533.533-.533h9.062v.533a1.6 1.6 0 001.599 1.599h4.265a1.6 1.6 0 001.599-1.599v-.533h9.062c.294 0 .533.239.533.533v2.132a.533.533 0 01-.533.533H1.601a.533.533 0 01-.533-.533V24.56z"/></symbol><symbol id="icon-astronaut" viewBox="0 0 32 32"><path fill="var(--color1, #2196f3)" d="M31.974 4.524a.535.535 0 00-.427-.362h-.003l-1.911-.278-.855-1.731c-.179-.365-.777-.365-.956 0l-.855 1.731-1.911.278a.534.534 0 00-.296.91l1.383 1.348-.326 1.903a.532.532 0 00.774.562l1.709-.899 1.709.899a.534.534 0 00.773-.565v.003l-.326-1.903 1.383-1.348a.535.535 0 00.134-.55l.001.004zm-2.463 1.327a.53.53 0 00-.153.472l.191 1.114-1-.526a.525.525 0 00-.501.001l.003-.001-1 .526.191-1.114a.53.53 0 00-.152-.472l-.811-.79 1.119-.162a.532.532 0 00.402-.292l.5-1.013.5 1.013a.532.532 0 00.402.292l1.119.162-.809.79zm-3.377 14.671h-1.067v1.067h1.067v-1.067zm0 2.134h-1.067v1.066h1.067v-1.066zm1.066-1.067h-1.067v1.067H27.2v-1.067zm-2.133 0H24v1.067h1.067v-1.067zm-2.667 4.8h-1.067v1.067H22.4v-1.067zm0 2.134h-1.067v1.067H22.4v-1.067zm1.067-1.067H22.4v1.067h1.067v-1.067zm-2.133 0h-1.067v1.067h1.067v-1.067zM16 24.256h-1.066v1.067H16v-1.067zm0 2.133h-1.066v1.067H16v-1.067zm1.067-1.067H16v1.067h1.067v-1.067zm-2.133 0h-1.067v1.067h1.067v-1.067zm-9.067-19.2H4.801v1.066h1.066V6.122zm0 2.134H4.801v1.066h1.066V8.256zm1.066-1.067H5.866v1.067h1.066V7.189zm-2.133 0H3.733v1.067H4.8V7.189z"/><path fill="var(--color4, #212121)" d="M24.715 14.16a1.774 1.774 0 00-1.179-.703l-.009-.001a1.769 1.769 0 00-1.344.355l.004-.003-1.253.96-1.898 1.417-1.358-.541c2.421-1.086 4.113-3.508 4.113-6.32 0-3.823-3.122-6.934-6.961-6.934S7.869 5.5 7.869 9.324c0 1.386.415 2.674 1.12 3.759l-2.768-.024c-.009 0-.016.005-.023.005a.511.511 0 00-.159.033l.004-.001c-.013.005-.026.007-.038.013-.006.003-.013.003-.019.006l-3.233 1.596-.001.001-1.893.91a.5.5 0 00-.065.036l.001-.001a1.782 1.782 0 00-.594 2.306l-.005-.01c.22.424.592.742 1.043.885l.013.003a1.772 1.772 0 001.388-.133l-.009.005 1.388-.738 2.264-1.169 1.357-.008-5.442 5.415-.001.001-1.339 1.333a1.643 1.643 0 00-.491 1.173v.005a1.668 1.668 0 001.667 1.664h.002a1.67 1.67 0 001.18-.485l1.314-1.309 1.741-1.3.901.897L4.07 27.28a1.643 1.643 0 00-.491 1.173v.004a1.662 1.662 0 001.666 1.664h.003a1.67 1.67 0 001.18-.485l4.488-4.472c.007-.006.016-.009.022-.016l5.166-5.658 3.471.494a.474.474 0 00.262-.032c.017-.006.032-.015.049-.023.019-.01.039-.015.058-.027l3.213-2.133c.012-.008.018-.021.029-.03.013-.01.029-.014.041-.026l1.271-1.191c.348-.326.564-.787.564-1.3 0-.4-.132-.769-.355-1.066l.003.005zM2.13 17.77a.706.706 0 01-.564.05l.005.001a.717.717 0 01-.215-1.258l.002-.001 1.314-.632.316.924.133.389-.992.527zm3.497-1.828l-1.548.8-.255-.746-.184-.537 2.027-1.001-.04 1.484zm15.1-6.62c0 .918-.219 1.785-.599 2.56l-4.181-1.899a1.865 1.865 0 00-.782-1.384l-.006-.004 1.464-4.861c2.377.757 4.104 2.975 4.104 5.588zm-11.789 0c0-3.235 2.644-5.867 5.894-5.867.253 0 .5.022.745.053l-1.432 4.753c-.019 0-.037-.006-.057-.006h-.001a1.872 1.872 0 00-1.872 1.867 1.873 1.873 0 001.872 1.867h.001c.695 0 1.295-.383 1.618-.944l3.863 1.755a5.891 5.891 0 01-4.737 2.39c-3.25 0-5.894-2.632-5.894-5.867zm5.957.8c0 .441-.362.8-.806.8h-.001a.804.804 0 01-.804-.8c0-.441.361-.8.806-.8s.806.359.806.8zM2.464 25.146a.606.606 0 01-.855.001.591.591 0 010-.844l.962-.959.852.848-.959.954zm3.214 3.734a.606.606 0 01-.855.001.591.591 0 010-.844l.963-.959.852.848-.96.955zm3.482-3.469l-.001.001-1.765 1.76-.852-.848 1.765-1.757a.527.527 0 00.09-.136c.007-.014.02-.026.026-.04.016-.041.019-.085.026-.128.003-.025.014-.048.014-.073 0-.035-.013-.07-.02-.105-.006-.032-.006-.064-.019-.096a.536.536 0 00-.092-.138c-.01-.012-.014-.026-.025-.038h-.001l-.001-.002-1.607-1.6c-.017-.017-.039-.024-.058-.038a.491.491 0 00-.084-.056l-.003-.001a.527.527 0 00-.09-.031l-.003-.001a.502.502 0 00-.101-.02h-.025a.603.603 0 00-.075.005h.003c-.036.005-.069.009-.104.021s-.064.027-.094.045c-.02.011-.043.015-.061.029l-1.774 1.324-.901-.897 2.399-2.386 4.36 4.289-.928.919zm6.819-7.017c-.016-.002-.03.004-.046.003l-.027-.001a.562.562 0 00-.092.008h.003a.484.484 0 00-.187.07l.002-.001a.492.492 0 00-.083.061c-.013.011-.028.016-.04.029l-4.698 5.146-4.328-4.256 2.833-2.818a.535.535 0 00-.378-.911h-.002l-2.219.013.028-1.607 3.104.027a6.928 6.928 0 004.978 2.101h.003c.438 0 .864-.046 1.28-.122.04.032.08.064.129.085l2.41.96.152.758.178.886-3.003-.427zm4.041.178l-.313-1.558 1.446-1.08.946 1.257-2.08 1.381zm3.753-2.831l-.837.785-.931-1.236.831-.637a.735.735 0 01.543-.143.718.718 0 01.621.71.71.71 0 01-.226.521z"/><path fill="var(--color4, #212121)" d="M13.602 18.544l-2.143-2.134a.53.53 0 00-.752 0l-2.143 2.133a.535.535 0 000 .756l2.142 2.134a.53.53 0 00.752 0l2.143-2.134a.532.532 0 000-.756zm-2.519 1.759l-1.387-1.381 1.386-1.381 1.387 1.381-1.387 1.381zm6.081-15.232l-.258 1.036c.071.018 1.738.452 1.738 2.149h1.067c0-2.017-1.666-2.965-2.547-3.184zm2.547 4.251h-1.067v1.066h1.067V9.322z"/></symbol><symbol id="icon-instagram" viewBox="0 0 32 32"><path fill="var(--color5, #fff)" d="M31.968 9.408c-.074-1.701-.349-2.869-.742-3.882a7.839 7.839 0 00-1.85-2.837l-.001-.001A7.906 7.906 0 0026.597.861l-.054-.018C25.524.449 24.362.176 22.661.101 20.949.019 20.405 0 16.059 0c-4.344 0-4.888.019-6.595.094-1.699.074-2.869.349-3.88.742a7.847 7.847 0 00-2.839 1.85l-.001.001A7.9 7.9 0 00.919 5.465l-.018.054C.506 6.538.232 7.7.157 9.401c-.082 1.712-.101 2.256-.101 6.602 0 4.344.019 4.888.094 6.595.075 1.701.35 2.869.744 3.882a7.915 7.915 0 001.849 2.837l.001.001c.8.813 1.77 1.443 2.832 1.843 1.019.395 2.182.67 3.882.744 1.707.075 2.251.094 6.595.094 4.346 0 4.89-.019 6.595-.094 1.701-.074 2.869-.349 3.882-.742a8.237 8.237 0 004.664-4.628l.019-.055c.394-1.019.669-2.182.744-3.882.075-1.707.093-2.251.093-6.595s-.006-4.888-.08-6.595zm-2.88 13.066c-.07 1.563-.333 2.406-.55 2.97a5.341 5.341 0 01-3.004 3.024l-.036.012c-.56.219-1.411.482-2.968.55-1.688.075-2.194.094-6.464.094-4.269 0-4.782-.019-6.464-.094-1.563-.069-2.406-.331-2.97-.55a4.953 4.953 0 01-1.836-1.192l-.001-.001a4.978 4.978 0 01-1.184-1.803L3.6 25.45c-.218-.563-.48-1.413-.549-2.97-.075-1.688-.094-2.195-.094-6.464 0-4.27.019-4.784.094-6.464.069-1.563.331-2.406.549-2.97a4.897 4.897 0 011.198-1.837l.002-.002a4.972 4.972 0 011.806-1.182l.034-.011c.56-.219 1.411-.48 2.968-.55 1.688-.074 2.195-.093 6.464-.093 4.275 0 4.782.019 6.464.093 1.563.069 2.406.331 2.97.55a4.91 4.91 0 011.837 1.194c.531.52.938 1.144 1.195 1.84.218.56.48 1.411.549 2.968.075 1.688.094 2.194.094 6.464 0 4.269-.019 4.768-.094 6.458z"/><path fill="var(--color5, #fff)" d="M16.059 7.782a8.223 8.223 0 00-8.219 8.221v.002a8.222 8.222 0 1016.444 0 8.222 8.222 0 00-8.222-8.222h-.002zm0 13.552a5.333 5.333 0 01.001-10.666h.001a5.334 5.334 0 110 10.668zM26.525 7.458a1.92 1.92 0 01-3.84 0 1.92 1.92 0 013.84 0z"/></symbol><symbol id="icon-facebook" viewBox="0 0 32 32"><path fill="var(--color5, #fff)" d="M21.328 5.312h2.923V.224A36.478 36.478 0 0020.144 0h-.157.008c-4.213 0-7.099 2.65-7.099 7.52V12H8.25v5.688h4.646V32h5.699V17.69h4.459l.709-5.688h-5.17V8.08c0-1.643.443-2.768 2.734-2.768z"/></symbol><symbol id="icon-linkedin" viewBox="0 0 32 32"><path fill="var(--color5, #fff)" d="M31.992 32H32V20.262c0-5.741-1.237-10.163-7.947-10.163-3.227 0-5.392 1.77-6.277 3.45h-.093v-2.914h-6.365v21.363h6.627V21.42c0-2.786.528-5.48 3.978-5.48 3.398 0 3.448 3.179 3.448 5.658V32h6.621zM.528 10.635h6.635V32H.528V10.635zM3.843 0A3.843 3.843 0 000 3.843c0 2.12 1.722 3.878 3.843 3.878 2.12 0 3.842-1.757 3.842-3.878S5.965.002 3.844 0z"/></symbol><symbol id="icon-twitter" viewBox="0 0 32 32"><path fill="var(--color2, #afb1b8)" d="M32 6.078c-1.1.493-2.376.857-3.713 1.028l-.068.007a6.556 6.556 0 002.873-3.579l.013-.046a12.88 12.88 0 01-4.076 1.573l-.084.014A6.558 6.558 0 0015.6 9.557v.004c0 .52.043 1.021.152 1.496-5.454-.266-10.28-2.88-13.522-6.861a6.524 6.524 0 00-.902 3.313v.001a6.57 6.57 0 002.914 5.451 6.453 6.453 0 01-2.994-.823l.033.017v.072a6.592 6.592 0 005.213 6.44l.043.008a6.403 6.403 0 01-1.662.215h-.061.003c-.419 0-.843-.024-1.242-.112.85 2.598 3.261 4.509 6.13 4.57a13.093 13.093 0 01-8.122 2.8H1.57h.001-.062c-.531 0-1.055-.034-1.569-.099l.061.006c2.826 1.846 6.287 2.944 10.004 2.944h.063-.003c12.072 0 18.672-10 18.672-18.669 0-.288-.01-.57-.024-.848a13.203 13.203 0 003.258-3.355l.03-.047z"/></symbol></defs></svg>